<?xml version="1.0" standalone="no"?>
<!DOCTYPE svg PUBLIC "-//W3C//DTD SVG 20010904//EN"
 "http://www.w3.org/TR/2001/REC-SVG-20010904/DTD/svg10.dtd">
<svg version="1.0" xmlns="http://www.w3.org/2000/svg"
 width="669.000000pt" height="669.000000pt" viewBox="0 0 669.000000 669.000000"
 preserveAspectRatio="xMidYMid meet">
<metadata>
Created by potrace 1.14, written by Peter Selinger 2001-2017
</metadata>
<g transform="translate(0.000000,669.000000) scale(0.100000,-0.100000)"
fill="#000000" stroke="none">
<path d="M4338 4885 c-2 -2 -26 -5 -53 -9 -76 -9 -168 -42 -246 -89 -57 -34
-162 -133 -530 -500 -252 -253 -459 -460 -459 -462 0 -2 26 12 57 31 85 51
158 77 253 90 127 18 274 -7 390 -66 23 -12 48 -26 54 -31 6 -5 27 -21 46 -35
19 -13 370 -360 780 -769 410 -410 751 -745 757 -745 6 0 16 -7 23 -16 21 -24
148 -80 224 -97 87 -20 249 -16 326 8 72 22 180 74 180 86 0 5 6 9 14 9 36 0
187 179 225 265 58 133 73 297 41 430 -16 66 -75 190 -114 239 -40 50 -1462
1473 -1519 1519 -77 63 -205 119 -301 132 -52 7 -144 13 -148 10z"/>
<path d="M1955 4413 c-94 -14 -180 -48 -277 -109 -24 -15 -243 -227 -488 -471
-245 -243 -448 -443 -452 -443 -3 0 -8 -5 -10 -11 -2 -5 -72 -79 -156 -163
l-152 -152 24 -23 24 -22 138 137 c171 169 231 215 344 262 63 26 73 29 136
40 65 11 177 7 229 -9 51 -15 59 -17 65 -16 10 1 107 -58 148 -90 49 -40 472
-462 472 -472 0 -3 -151 -157 -335 -341 -184 -184 -335 -337 -335 -341 0 -3 8
-13 18 -22 17 -16 36 1 359 323 l341 340 254 -253 c229 -228 321 -308 398
-344 67 -32 179 -59 265 -65 28 -1 139 13 181 23 61 15 152 55 176 76 10 9 18
13 18 10 0 -4 9 1 21 11 11 9 30 25 42 35 22 18 722 714 867 863 64 65 68 71
28 41 -41 -31 -93 -59 -163 -88 -53 -22 -155 -37 -243 -34 -133 3 -270 50
-372 127 -14 10 -259 252 -545 536 -388 386 -536 527 -581 554 -62 36 -150 73
-201 83 -40 8 -202 14 -238 8z"/>
</g>
</svg>
