<?xml version="1.0" standalone="no"?>
<!DOCTYPE svg PUBLIC "-//W3C//DTD SVG 20010904//EN"
 "http://www.w3.org/TR/2001/REC-SVG-20010904/DTD/svg10.dtd">
<svg version="1.0" xmlns="http://www.w3.org/2000/svg"
 width="700.000000pt" height="700.000000pt" viewBox="0 0 700.000000 700.000000"
 preserveAspectRatio="xMidYMid meet">
<metadata>
Created by potrace 1.14, written by Peter Selinger 2001-2017
</metadata>
<g transform="translate(0.000000,700.000000) scale(0.100000,-0.100000)"
fill="#000000" stroke="none">
<path d="M4375 4953 c-87 -18 -185 -58 -257 -106 -46 -31 -1038 -1009 -1038
-1024 0 -3 10 2 23 11 12 9 29 19 37 23 8 4 17 10 20 13 8 12 142 63 199 76
53 13 247 13 304 0 56 -13 161 -57 221 -93 46 -27 256 -231 871 -844 446 -445
828 -822 851 -838 80 -59 211 -114 303 -128 77 -11 207 -7 281 10 108 24 234
92 322 175 252 236 296 641 99 920 -39 54 -1541 1567 -1646 1657 -154 132
-387 190 -590 148z"/>
<path d="M1914 4459 c-114 -14 -209 -49 -314 -116 -35 -22 -305 -285 -710
-689 l-654 -653 28 -24 27 -24 142 142 c78 77 167 160 197 184 85 67 198 119
321 147 43 10 189 6 242 -6 78 -19 185 -73 252 -130 33 -27 160 -150 283 -273
l223 -224 -365 -365 c-201 -201 -366 -370 -366 -375 0 -6 8 -17 18 -26 17 -16
38 3 383 348 200 200 369 365 374 365 6 0 134 -124 285 -275 151 -151 277
-275 280 -275 3 0 15 -8 26 -18 30 -28 123 -77 193 -101 151 -52 331 -48 481
11 135 54 156 72 685 599 281 280 509 509 507 509 -2 0 -28 -16 -57 -35 -189
-126 -458 -147 -671 -54 -111 49 -167 99 -714 645 -305 304 -573 567 -596 584
-138 101 -328 150 -500 129z"/>
<path d="M3049 3803 c-13 -16 -12 -17 4 -4 16 13 21 21 13 21 -2 0 -10 -8 -17
-17z"/>
</g>
</svg>
