<svg id="a" xmlns="http://www.w3.org/2000/svg"
    aria-hidden="true"
    viewBox="0 0 157.17 241.02">
    <path
        d="M137.86,106.37c-7.89-11.59-15.63-23.29-23.65-34.79C99.57,50.58,85.7,28.8,79.12.21c-.06-.28-1.02-.28-1.09.02-6.58,28.58-20.44,50.36-35.08,71.35-8.02,11.5-15.76,23.2-23.65,34.79-18.17,29.64-27.32,60.86-10.26,92.8,29.8,55.8,109.28,55.8,139.08,0,17.06-31.94,7.91-63.16-10.26-92.8ZM9.56,164.58l9.76,6.62c-1.6,10.25,2,22.23,8.72,35.25-10.61-8.89-16.28-23.41-18.48-41.87ZM117.99,142.04c-.71.43-2.46-.11-3.23-.8-2.19-1.92-4.12-4.14-6.16-6.25-.41.15-.83.29-1.24.44,0,5.68-.01,11.36,0,17.04.02,15.98,0,31.96.12,47.94.02,2.08-.63,3.23-2.42,4.2-17.97,9.68-35.9,9.72-53.9.12-1.79-.96-2.5-2.07-2.49-4.18.1-15.65.08-31.29.09-46.93.01-6.04,0-12.08,0-18.12-.72-.39-1.44-.79-2.16-1.19-1.67,2.22-3.4,4.39-5,6.67-1.18,1.67-2.38,2.1-4.14.86-3.62-2.53-7.29-4.97-11.14-7.58,7.15-17.06,19.06-28.18,36.08-33.74,2.18,8.44,7.49,12.22,16.39,11.89,8.37-.32,13.24-4.19,14.67-11.91h.05c17.07,5.5,28.94,16.65,36.19,33.74-3.99,2.71-7.76,5.41-11.71,7.8Z"
        fill="#09090b" fill-rule="evenodd" stroke-width="0" />
</svg>