<svg
    aria-hidden="true"
    xmlns="http://www.w3.org/2000/svg"
    viewBox="0 0 1243.86 1247.35" fill="#09090b"
>
    <path
        d="M523.01,1247.35H0v-368.64h81.18v-509.83H0V.1h439.92c120.16,190.06,240.59,380.53,361.02,571.01.32-.1.64-.21.96-.31v-201.69h-81.02V0h522.89v368.84h-81.19v509.57h81.28v368.79h-439.9c-120.24-190.16-240.67-380.62-361.1-571.09-.31.11-.62.22-.93.34v201.71h81.08v369.18ZM15.84,1231.44h491.36v-337.28h-81.29v-274.51c129.49,204.79,258.29,408.48,386.9,611.88h415.24v-337.26h-81.23V353.09h81.24V15.96h-491.24v337.38h81.24v272.86c-.27.12-.55.24-.82.37C688.48,422.91,559.71,219.24,431.17,15.95H15.94v337.32h81.2v541.08H15.84v337.1Z"
    ></path>
    <path
        d="M122.09,327.8H41.03V41.17h376.37c141.24,223.39,282.79,447.26,424.33,671.14l.97-.24v-384.16h-80.85V41.2h440.98v286.45h-81.23v591.81h81.29v286.72h-376.4c-141.46-223.72-283.08-447.69-424.69-671.66-.31.14-.63.28-.94.42v384.36h81.22v286.82H41.04v-286.28h81.05V327.8Z"
    ></path>
</svg>